<?xml version="1.0" encoding="UTF-8" standalone="no"?>
<!-- Created with Inkscape (http://www.inkscape.org/) -->

<svg
   version="1.1"
   id="svg2"
   width="651.59467"
   height="234.9633"
   viewBox="0 0 651.59467 234.9633"
   sodipodi:docname="SHAP_avg.svg"
   xml:space="preserve"
   inkscape:version="1.2.2 (1:1.2.2+202212051550+b0a8486541)"
   inkscape:export-filename="SHAP_avg_edit.png"
   inkscape:export-xdpi="300"
   inkscape:export-ydpi="300"
   xmlns:inkscape="http://www.inkscape.org/namespaces/inkscape"
   xmlns:sodipodi="http://sodipodi.sourceforge.net/DTD/sodipodi-0.dtd"
   xmlns="http://www.w3.org/2000/svg"
   xmlns:svg="http://www.w3.org/2000/svg"><defs
     id="defs6"><clipPath
       clipPathUnits="userSpaceOnUse"
       id="clipPath20"><path
         d="M 72,42.3 H 518.4 V 297.792 H 72 Z"
         id="path18" /></clipPath><clipPath
       clipPathUnits="userSpaceOnUse"
       id="clipPath30"><path
         d="M 72,42.3 H 518.4 V 297.792 H 72 Z"
         id="path28" /></clipPath><clipPath
       clipPathUnits="userSpaceOnUse"
       id="clipPath40"><path
         d="M 72,42.3 H 518.4 V 297.792 H 72 Z"
         id="path38" /></clipPath><clipPath
       clipPathUnits="userSpaceOnUse"
       id="clipPath50"><path
         d="M 72,42.3 H 518.4 V 297.792 H 72 Z"
         id="path48" /></clipPath><clipPath
       clipPathUnits="userSpaceOnUse"
       id="clipPath60"><path
         d="M 72,42.3 H 518.4 V 297.792 H 72 Z"
         id="path58" /></clipPath><clipPath
       clipPathUnits="userSpaceOnUse"
       id="clipPath70"><path
         d="M 72,42.3 H 518.4 V 297.792 H 72 Z"
         id="path68" /></clipPath><clipPath
       clipPathUnits="userSpaceOnUse"
       id="clipPath80"><path
         d="M 72,42.3 H 518.4 V 297.792 H 72 Z"
         id="path78" /></clipPath><clipPath
       clipPathUnits="userSpaceOnUse"
       id="clipPath90"><path
         d="M 72,42.3 H 518.4 V 297.792 H 72 Z"
         id="path88" /></clipPath><clipPath
       clipPathUnits="userSpaceOnUse"
       id="clipPath100"><path
         d="M 72,42.3 H 518.4 V 297.792 H 72 Z"
         id="path98" /></clipPath><clipPath
       clipPathUnits="userSpaceOnUse"
       id="clipPath110"><path
         d="M 72,42.3 H 518.4 V 297.792 H 72 Z"
         id="path108" /></clipPath><clipPath
       clipPathUnits="userSpaceOnUse"
       id="clipPath120"><path
         d="M 72,42.3 H 518.4 V 297.792 H 72 Z"
         id="path118" /></clipPath><clipPath
       clipPathUnits="userSpaceOnUse"
       id="clipPath130"><path
         d="M 72,42.3 H 518.4 V 297.792 H 72 Z"
         id="path128" /></clipPath><clipPath
       clipPathUnits="userSpaceOnUse"
       id="clipPath140"><path
         d="M 72,42.3 H 518.4 V 297.792 H 72 Z"
         id="path138" /></clipPath><clipPath
       clipPathUnits="userSpaceOnUse"
       id="clipPath150"><path
         d="M 72,42.3 H 518.4 V 297.792 H 72 Z"
         id="path148" /></clipPath><clipPath
       clipPathUnits="userSpaceOnUse"
       id="clipPath160"><path
         d="M 72,42.3 H 518.4 V 297.792 H 72 Z"
         id="path158" /></clipPath><clipPath
       clipPathUnits="userSpaceOnUse"
       id="clipPath170"><path
         d="M 72,42.3 H 518.4 V 297.792 H 72 Z"
         id="path168" /></clipPath><clipPath
       clipPathUnits="userSpaceOnUse"
       id="clipPath180"><path
         d="M 72,42.3 H 518.4 V 297.792 H 72 Z"
         id="path178" /></clipPath><clipPath
       clipPathUnits="userSpaceOnUse"
       id="clipPath274"><path
         d="M -1021,-463 H 1794 V 1233 H -1021 Z"
         id="path272" /></clipPath><clipPath
       clipPathUnits="userSpaceOnUse"
       id="clipPath288"><path
         d="M -1021,-463 H 1794 V 1233 H -1021 Z"
         id="path286" /></clipPath><clipPath
       clipPathUnits="userSpaceOnUse"
       id="clipPath300"><path
         d="M -1016,-351 H 1660 V 1068 H -1016 Z"
         id="path298" /></clipPath><clipPath
       clipPathUnits="userSpaceOnUse"
       id="clipPath330"><path
         d="M -1016,-351 H 1660 V 1068 H -1016 Z"
         id="path328" /></clipPath><clipPath
       clipPathUnits="userSpaceOnUse"
       id="clipPath352"><path
         d="M -1021,-463 H 1794 V 1233 H -1021 Z"
         id="path350" /></clipPath></defs><sodipodi:namedview
     id="namedview4"
     pagecolor="#ffffff"
     bordercolor="#666666"
     borderopacity="1.0"
     inkscape:showpageshadow="2"
     inkscape:pageopacity="0.0"
     inkscape:pagecheckerboard="0"
     inkscape:deskcolor="#d1d1d1"
     showgrid="false"
     inkscape:zoom="0.94193263"
     inkscape:cx="192.68894"
     inkscape:cy="95.017411"
     inkscape:window-width="1848"
     inkscape:window-height="1016"
     inkscape:window-x="72"
     inkscape:window-y="27"
     inkscape:window-maximized="1"
     inkscape:current-layer="g10"><inkscape:page
       x="0"
       y="0"
       id="page8"
       width="651.59467"
       height="234.9633" /></sodipodi:namedview><g
     id="g10"
     inkscape:groupmode="layer"
     inkscape:label="Page 1"
     transform="matrix(1.3333333,0,0,-1.3333333,-40.138666,380.0022)"><g
       id="g14"
       transform="matrix(1,0,0,0.54117561,0,123.84389)"><g
         id="g16"
         clip-path="url(#clipPath20)"><path
           d="M 72,42.3 V 297.792"
           style="fill:none;stroke:#999999;stroke-width:1.5;stroke-linecap:square;stroke-linejoin:round;stroke-miterlimit:10;stroke-dasharray:none;stroke-opacity:1"
           id="path22" /></g></g><g
       id="g24"
       style="fill:#aa0000"
       transform="translate(0,91.5)"><g
         id="g26"
         clip-path="url(#clipPath30)"
         style="fill:#aa0000"><path
           d="m 72,60.7522 h 32.47284 V 80.6238 H 72 Z"
           style="fill:#aa0000;fill-opacity:1;fill-rule:nonzero;stroke:none"
           id="path32" /></g></g><g
       id="g74"
       style="fill:#aa0000"><g
         id="g76"
         clip-path="url(#clipPath80)"
         style="fill:#aa0000"><path
           d="m 72,202.6922 h 102.61016 v 19.8716 H 72 Z"
           style="fill:#aa0000;fill-opacity:1;fill-rule:nonzero;stroke:none"
           id="path82" /></g></g><g
       id="g84"
       style="fill:#aa0000"><g
         id="g86"
         clip-path="url(#clipPath90)"
         style="fill:#aa0000"><path
           d="m 72,231.0802 h 115.83105 v 19.8716 H 72 Z"
           style="fill:#aa0000;fill-opacity:1;fill-rule:nonzero;stroke:none"
           id="path92" /></g></g><g
       id="g94"
       style="fill:#aa0000"><g
         id="g96"
         clip-path="url(#clipPath100)"
         style="fill:#aa0000"><path
           d="m 72,259.4682 h 212.57143 v 19.8716 H 72 Z"
           style="fill:#aa0000;fill-opacity:1;fill-rule:nonzero;stroke:none"
           id="path102" /></g></g><g
       id="g174" /><g
       id="g184"><path
         d="m 72,145.8 v -3.5"
         style="fill:#333333;fill-opacity:1;fill-rule:nonzero;stroke:#333333;stroke-width:0.8;stroke-linecap:butt;stroke-linejoin:round;stroke-miterlimit:10;stroke-dasharray:none;stroke-opacity:1"
         id="path186" /><g
         id="g188"
         transform="translate(59.75,130.44063)"><text
           xml:space="preserve"
           transform="scale(1,-1)"
           style="font-variant:normal;font-weight:normal;font-size:11px;font-family:'DejaVu Sans';-inkscape-font-specification:DejaVuSans;writing-mode:lr-tb;fill:#333333;fill-opacity:1;fill-rule:nonzero;stroke:none"
           id="text192"><tspan
             x="0 6.9959998 10.494 17.49"
             y="0"
             sodipodi:role="line"
             id="tspan190">0.00</tspan></text></g><path
         d="m 149.0886,145.8 v -3.5"
         style="fill:#333333;fill-opacity:1;fill-rule:nonzero;stroke:#333333;stroke-width:0.8;stroke-linecap:butt;stroke-linejoin:round;stroke-miterlimit:10;stroke-dasharray:none;stroke-opacity:1"
         id="path194" /><g
         id="g196"
         transform="translate(136.8386,130.44063)"><text
           xml:space="preserve"
           transform="scale(1,-1)"
           style="font-variant:normal;font-weight:normal;font-size:11px;font-family:'DejaVu Sans';-inkscape-font-specification:DejaVuSans;writing-mode:lr-tb;fill:#333333;fill-opacity:1;fill-rule:nonzero;stroke:none"
           id="text200"><tspan
             x="0 6.9959998 10.494 17.49"
             y="0"
             sodipodi:role="line"
             id="tspan198">0.05</tspan></text></g><path
         d="m 226.17719,145.8 v -3.5"
         style="fill:#333333;fill-opacity:1;fill-rule:nonzero;stroke:#333333;stroke-width:0.8;stroke-linecap:butt;stroke-linejoin:round;stroke-miterlimit:10;stroke-dasharray:none;stroke-opacity:1"
         id="path202" /><g
         id="g204"
         transform="translate(213.92719,130.44063)"><text
           xml:space="preserve"
           transform="scale(1,-1)"
           style="font-variant:normal;font-weight:normal;font-size:11px;font-family:'DejaVu Sans';-inkscape-font-specification:DejaVuSans;writing-mode:lr-tb;fill:#333333;fill-opacity:1;fill-rule:nonzero;stroke:none"
           id="text208"><tspan
             x="0 6.9959998 10.494 17.49"
             y="0"
             sodipodi:role="line"
             id="tspan206">0.10</tspan></text></g><path
         d="m 303.26579,145.8 v -3.5"
         style="fill:#333333;fill-opacity:1;fill-rule:nonzero;stroke:#333333;stroke-width:0.8;stroke-linecap:butt;stroke-linejoin:round;stroke-miterlimit:10;stroke-dasharray:none;stroke-opacity:1"
         id="path210" /><g
         id="g212"
         transform="translate(291.01579,130.44063)"><text
           xml:space="preserve"
           transform="scale(1,-1)"
           style="font-variant:normal;font-weight:normal;font-size:11px;font-family:'DejaVu Sans';-inkscape-font-specification:DejaVuSans;writing-mode:lr-tb;fill:#333333;fill-opacity:1;fill-rule:nonzero;stroke:none"
           id="text216"><tspan
             x="0 6.9959998 10.494 17.49"
             y="0"
             sodipodi:role="line"
             id="tspan214">0.15</tspan></text></g><path
         d="m 380.35439,145.8 v -3.5"
         style="fill:#333333;fill-opacity:1;fill-rule:nonzero;stroke:#333333;stroke-width:0.8;stroke-linecap:butt;stroke-linejoin:round;stroke-miterlimit:10;stroke-dasharray:none;stroke-opacity:1"
         id="path218" /><g
         id="g220"
         transform="translate(368.10439,130.44063)"><text
           xml:space="preserve"
           transform="scale(1,-1)"
           style="font-variant:normal;font-weight:normal;font-size:11px;font-family:'DejaVu Sans';-inkscape-font-specification:DejaVuSans;writing-mode:lr-tb;fill:#333333;fill-opacity:1;fill-rule:nonzero;stroke:none"
           id="text224"><tspan
             x="0 6.9959998 10.494 17.49"
             y="0"
             sodipodi:role="line"
             id="tspan222">0.20</tspan></text></g><path
         d="m 457.44298,145.8 v -3.5"
         style="fill:#333333;fill-opacity:1;fill-rule:nonzero;stroke:#333333;stroke-width:0.8;stroke-linecap:butt;stroke-linejoin:round;stroke-miterlimit:10;stroke-dasharray:none;stroke-opacity:1"
         id="path226" /><g
         id="g228"
         transform="translate(445.19298,130.44063)"><text
           xml:space="preserve"
           transform="scale(1,-1)"
           style="font-variant:normal;font-weight:normal;font-size:11px;font-family:'DejaVu Sans';-inkscape-font-specification:DejaVuSans;writing-mode:lr-tb;fill:#333333;fill-opacity:1;fill-rule:nonzero;stroke:none"
           id="text232"><tspan
             x="0 6.9959998 10.494 17.49"
             y="0"
             sodipodi:role="line"
             id="tspan230">0.25</tspan></text></g><g
         id="g234"
         transform="translate(78.7,10.721875)"><text
           xml:space="preserve"
           transform="scale(1,-1)"
           style="font-variant:normal;font-weight:normal;font-size:13px;font-family:'DejaVu Sans';-inkscape-font-specification:DejaVuSans;writing-mode:lr-tb;fill:#000000;fill-opacity:1;fill-rule:nonzero;stroke:none"
           id="text238"><tspan
             sodipodi:role="line"
             id="tspan236"
             x="0"
             y="0" /></text></g><g
         id="g240"
         transform="translate(38.8125,157.2505)"><text
           xml:space="preserve"
           transform="scale(1,-1)"
           style="font-variant:normal;font-weight:normal;font-size:13px;font-family:'DejaVu Sans';-inkscape-font-specification:DejaVuSans;writing-mode:lr-tb;fill:#333333;fill-opacity:1;fill-rule:nonzero;stroke:none"
           id="text244"><tspan
             x="0 8.8920002 17.108"
             y="0"
             sodipodi:role="line"
             id="tspan242">VEC</tspan></text></g><g
         id="g310"
         transform="translate(47,207.628)"><text
           xml:space="preserve"
           transform="matrix(1,0,0,-1,0,0.515625)"
           style="font-variant:normal;font-weight:normal;font-size:13px;font-family:'DejaVu Sans';-inkscape-font-specification:DejaVuSans;writing-mode:lr-tb;fill:#333333;fill-opacity:1;fill-rule:nonzero;stroke:none"
           id="text314"><tspan
             x="0"
             y="0"
             id="tspan312">T</tspan></text><text
           xml:space="preserve"
           transform="matrix(1,0,0,-1,8.065332,-1.6171875)"
           style="font-style:italic;font-variant:normal;font-size:9.1px;font-family:'DejaVu Sans';-inkscape-font-specification:DejaVuSans-Oblique;writing-mode:lr-tb;fill:#333333;fill-opacity:1;fill-rule:nonzero;stroke:none"
           id="text318"><tspan
             x="0"
             y="0"
             id="tspan316">m</tspan></text></g><g
         id="g320"
         transform="translate(57,236.0785)"><g
           id="g322"
           transform="matrix(0.013,0,0,0.013,0,0.34375)"><g
             id="g324"><g
               id="g326"
               clip-path="url(#clipPath330)"><path
                 d="m 542,633 c -28,22 -81,34 -159,34 -83,0 -128,-19 -135,-57 -6,-30 32,-53 116,-68 64,-12 112,-37 144,-73 38,-44 48,-111 31,-201 C 521,182 486,113 432,63 377,12 311,-13 233,-13 155,-13 98,12 63,63 28,113 20,183 38,273 c 12,66 46,126 101,180 21,20 45,37 72,49 -46,26 -64,61 -55,107 17,88 97,133 241,133 72,0 125,-12 160,-34 z M 274,478 c -24,-10 -48,-27 -70,-50 -36,-37 -60,-89 -72,-155 -13,-66 -9,-118 12,-155 20,-38 55,-56 104,-56 47,0 88,18 124,56 35,38 59,88 71,150 12,64 7,112 -16,144 -26,33 -58,52 -98,56 -21,2 -39,5 -55,10 z"
                 style="fill:#333333;fill-opacity:1;fill-rule:nonzero;stroke:none"
                 id="path332" /></g></g></g></g><g
         id="g334"
         transform="translate(30,264.404)"><text
           xml:space="preserve"
           transform="matrix(1,0,0,-1,8.8930664,0.34375)"
           style="font-style:italic;font-variant:normal;font-size:13px;font-family:'DejaVu Sans';-inkscape-font-specification:DejaVuSans-Oblique;writing-mode:lr-tb;fill:#333333;fill-opacity:1;fill-rule:nonzero;stroke:none"
           id="text338"><tspan
             x="0"
             y="0"
             id="tspan336">S</tspan></text><text
           xml:space="preserve"
           transform="matrix(1,0,0,-1,17.14502,-1.7890625)"
           style="font-variant:normal;font-weight:normal;font-size:9.1px;font-family:'DejaVu Sans';-inkscape-font-specification:DejaVuSans;writing-mode:lr-tb;fill:#333333;fill-opacity:1;fill-rule:nonzero;stroke:none"
           id="text342"><tspan
             x="0 8.864502 11.392774"
             y="0"
             sodipodi:role="line"
             id="tspan340">mix</tspan></text><g
           id="g344"
           transform="matrix(0.013,0,0,0.013,0,0.34375)"><g
             id="g346"><g
               id="g348"
               clip-path="url(#clipPath352)"><path
                 d="M 342,632 142,82 H 542 Z M 8,0 286,729 H 398 L 676,0 Z"
                 style="fill:#333333;fill-opacity:1;fill-rule:nonzero;stroke:none"
                 id="path354" /></g></g></g></g><path
         d="M 72,145.8 H 518.4"
         style="fill:none;stroke:#000000;stroke-width:0.8;stroke-linecap:square;stroke-linejoin:miter;stroke-miterlimit:10;stroke-dasharray:none;stroke-opacity:1"
         id="path356" /><text
         xml:space="preserve"
         style="font-size:18px;line-height:2.45;font-family:sans-serif;stroke-width:0.75"
         x="114.70297"
         y="-111.85535"
         id="text460"
         transform="scale(1,-1)"><tspan
           sodipodi:role="line"
           id="tspan458"
           style="font-style:normal;font-variant:normal;font-weight:normal;font-stretch:normal;font-size:18px;font-family:aakar;-inkscape-font-specification:aakar;stroke-width:0.75"
           x="114.70297"
           y="-111.85535">mean (|SHAP value|)</tspan></text></g><text
       xml:space="preserve"
       style="font-size:15px;line-height:2.45;font-family:sans-serif;stroke-width:0.75"
       x="-193.25745"
       y="-56.280476"
       id="text468"
       transform="matrix(0,-1,-1,0,0,0)"><tspan
         sodipodi:role="line"
         id="tspan466"
         style="font-size:15px;stroke-width:0.75"
         x="-193.25745"
         y="-56.280476">...</tspan></text></g></svg>
